# xmcd CD database file
#
# Track frame offsets:
#	150
#	11145
#	26648
#	44258
#	60383
#	75872
#	85650
#	105348
#	125453
#	141373
#	155755
#	166943
#	185123
#	197588
#	207200
#	223868
#	233858
#	253465
#
# Disc length: 3573 seconds
#
# Revision: 0
# Processed by: cddbd v1.4PL0 Copyright (c) Steve Scherf et al.
# Submitted via: Feurio! 1.62 - http://www.feurio.com
#
DISCID=f80df312
DTITLE=Various Artist - Howl - A Farewell Compilation Of Unreleased Songs
DYEAR=1994
DGENRE=Glitterhouse Records
TTITLE0=Vic Chesnutt - Goodbye Sadness
TTITLE1=Steve Wynn - Maria
TTITLE2=Souled American - Suitors Bridge
TTITLE3=Joe Henry - Honky Tonk Masquerade
TTITLE4=Victoria Williams - Feed The Birds
TTITLE5=The Mountain Goats - Against Agamemnon
TTITLE6=Mary Janes - Downtown
TTITLE7=Sid Griffin - The Man Who Invented The Blues
TTITLE8=The Silos - Nobody But You
TTITLE9=Thomas Anderson - The Bridge
TTITLE10=David Rodriguez - Die Gitarre Und Das Meer
TTITLE11=U.S. Saucer - The Plasma Is Still Now
TTITLE12=Terry Lee Hale - Too Much Life
TTITLE13=Giant Sand - Route 66
TTITLE14=Russ Tolman - Dexter Gordon
TTITLE15=Freakwater - Lullaby
TTITLE16=The Setters - You're Gonna Miss Me
TTITLE17=Sleepy Carter - Curtains Of Heaven
EXTD=Digipak.\r\nGRCD 352
EXTT0=
EXTT1=
EXTT2=
EXTT3=
EXTT4=
EXTT5=
EXTT6=
EXTT7=
EXTT8=
EXTT9=
EXTT10=
EXTT11=
EXTT12=
EXTT13=
EXTT14=
EXTT15=
EXTT16=
EXTT17=
PLAYORDER=
